<svg width="27" height="12" viewBox="0 0 27 12" fill="none" xmlns="http://www.w3.org/2000/svg">
<path d="M2.48269 11.2383L6.35045 11.2383C7.41676 11.2383 8.28433 10.3707 8.28433 9.30445L8.28433 7.5464C8.28433 6.73856 8.94171 6.08143 9.74912 6.08131L17.3726 6.08456C18.1823 6.08456 18.8376 6.73978 18.8376 7.54962C18.8376 7.83279 18.8376 8.64592 18.8376 9.30767C18.8376 10.3693 19.695 11.2416 20.7725 11.2415L24.6332 11.2354C25.6995 11.2354 26.567 10.3679 26.567 9.30439C26.5705 8.51205 26.5716 8.25646 26.5731 7.90119C26.5731 4.05588 23.4448 0.927499 19.5996 0.9275L7.52252 0.924341C3.66816 0.924312 0.548837 4.04333 0.548865 7.898L0.548837 9.30448C0.548836 10.3708 1.41635 11.2383 2.48269 11.2383ZM25.2778 9.30159C25.2778 9.65702 24.9887 9.94618 24.6322 9.94624L20.7715 9.95232C20.4152 9.95232 20.1269 9.66401 20.1269 9.3077L20.1269 8.66305L25.2806 8.66305L25.2778 9.30159ZM7.52231 2.21361L19.5995 2.21679C22.5745 2.21679 24.992 4.47076 25.2594 7.37379L20.1207 7.37379C20.0305 5.93334 18.8361 4.79526 17.3728 4.79526L9.74967 4.79207C9.7496 4.79207 9.74948 4.79207 9.74942 4.79207C8.28764 4.79204 7.09153 5.92823 7.00129 7.37054H1.86247C2.12708 4.47484 4.5268 2.21361 7.52231 2.21361ZM1.83804 9.30451V8.65983L6.99506 8.65987L6.99509 9.30445C6.99506 9.65991 6.70594 9.9491 6.35045 9.9491H2.48269C2.1272 9.9491 1.83801 9.65991 1.83804 9.30451Z" fill="white"/>
</svg>
