<svg width="22" height="23" viewBox="0 0 22 23" fill="none" xmlns="http://www.w3.org/2000/svg">
<circle cx="11" cy="11.1121" r="10" stroke="white" stroke-width="2"/>
<path d="M12.08 14.112H10.24C10.24 13.6854 10.336 13.2854 10.528 12.912C10.72 12.528 10.9547 12.2027 11.232 11.936C11.5094 11.6587 11.7867 11.3974 12.064 11.152C12.3414 10.896 12.576 10.6187 12.768 10.32C12.96 10.0214 13.056 9.71738 13.056 9.40805C13.056 8.97072 12.9014 8.62938 12.592 8.38405C12.2827 8.13872 11.8667 8.01605 11.344 8.01605C10.8427 8.01605 10.4107 8.14405 10.048 8.40005C9.68537 8.65605 9.42404 9.01872 9.26404 9.48805L7.68004 8.59205C7.96804 7.84538 8.44271 7.26405 9.10404 6.84805C9.77604 6.43205 10.5387 6.22405 11.392 6.22405C12.352 6.22405 13.1734 6.49605 13.856 7.04005C14.5494 7.58405 14.896 8.33605 14.896 9.29605C14.896 9.73338 14.8 10.1494 14.608 10.544C14.416 10.9387 14.1814 11.2747 13.904 11.552C13.6267 11.8294 13.3494 12.1014 13.072 12.368C12.7947 12.624 12.56 12.9014 12.368 13.2C12.176 13.4987 12.08 13.8027 12.08 14.112ZM11.168 15.424C11.4987 15.424 11.7814 15.5414 12.016 15.776C12.2507 16.0107 12.368 16.2934 12.368 16.624C12.368 16.9547 12.2507 17.2374 12.016 17.472C11.7814 17.7067 11.4987 17.824 11.168 17.824C10.8374 17.824 10.5547 17.7067 10.32 17.472C10.0854 17.2374 9.96804 16.9547 9.96804 16.624C9.96804 16.2934 10.08 16.0107 10.304 15.776C10.5387 15.5414 10.8267 15.424 11.168 15.424Z" fill="white"/>
</svg>
